<?xml version="1.0" encoding="UTF-8" standalone="no"?>
<!-- Created with Inkscape (http://www.inkscape.org/) -->

<svg
   width="27.923731mm"
   height="8.6995516mm"
   viewBox="0 0 27.923731 8.6995516"
   version="1.1"
   id="svg1"
   inkscape:version="1.3.2 (091e20e, 2023-11-25, custom)"
   sodipodi:docname="FedCenterHorizontalLogo.svg"
   xmlns:inkscape="http://www.inkscape.org/namespaces/inkscape"
   xmlns:sodipodi="http://sodipodi.sourceforge.net/DTD/sodipodi-0.dtd"
   xmlns="http://www.w3.org/2000/svg"
   xmlns:svg="http://www.w3.org/2000/svg">
  <sodipodi:namedview
     id="namedview1"
     pagecolor="#ffffff"
     bordercolor="#000000"
     borderopacity="0.25"
     inkscape:showpageshadow="2"
     inkscape:pageopacity="0.0"
     inkscape:pagecheckerboard="0"
     inkscape:deskcolor="#d1d1d1"
     inkscape:document-units="mm"
     inkscape:zoom="8.373039"
     inkscape:cx="46.100347"
     inkscape:cy="17.974358"
     inkscape:window-width="1920"
     inkscape:window-height="1129"
     inkscape:window-x="-8"
     inkscape:window-y="441"
     inkscape:window-maximized="1"
     inkscape:current-layer="layer1" />
  <defs
     id="defs1" />
  <g
     inkscape:label="Layer 1"
     inkscape:groupmode="layer"
     id="layer1"
     transform="translate(-74.481251,-56.875004)">
    <path
       style="fill:#000000"
       d="m 74.51917,65.46084 c 0.65927,-1.06672 7.7084,-5.59303 11.28125,-7.24378 2.93251,-1.35491 4.3594,-1.60979 6.13012,-1.09503 1.64211,0.47738 3.3967,2.03696 3.92011,3.48444 0.32209,0.89071 0.35065,0.90433 1.92743,0.91904 0.88027,0.008 2.01309,0.15705 2.51737,0.33073 1.00496,0.34613 2.13596,1.77796 2.10906,2.67003 -0.0164,0.54408 -0.0215,0.54467 -0.23335,0.027 -0.54306,-1.32683 -1.21464,-1.58229 -4.40706,-1.67642 -2.47357,-0.0729 -3.01573,-0.16072 -3.01573,-0.48834 0,-0.73326 -0.89321,-1.92318 -1.74816,-2.32888 -1.20379,-0.57124 -4.17004,-0.51486 -6.0795,0.11555 -0.86078,0.28419 -3.41052,1.36774 -5.66609,2.40788 -6.65022,3.06672 -6.92472,3.18401 -6.73545,2.87776 z m 15.62444,-2.67129 c -0.31697,-0.45254 -0.56636,-0.52301 -1.3963,-0.39454 l -1.0104,0.1564 1.05833,-0.51346 c 1.81565,-0.88092 3.75521,-0.52111 2.95469,0.54812 -0.53776,0.71826 -1.18806,0.80064 -1.60632,0.20349 z"
       id="path1"
       sodipodi:nodetypes="sssscssccsssssssscssss" />
  </g>
</svg>
